{"title":"Avengers Age of Ultron (2015) HDRip XviD-MAXSPEED","uid":12260311,"size":2199425702,"categoryP":"video","categoryS":"movies","magnet":"?xt=urn:btih:2e9d1a04c4e36c344ec4ad840a0774e1164c0a57&amp;dn=Avengers+Age+of+Ultron+%282015%29+HDRip+XviD-MAXSPEED&amp;tr=udp%3A%2F%2Ftracker.openbittorrent.com%3A80&amp;tr=udp%3A%2F%2Fopen.demonii.com%3A1337&amp;tr=udp%3A%2F%2Ftracker.coppersurfer.tk%3A6969&amp;tr=udp%3A%2F%2Fexodus.desync.com%3A6969","seeders":2,"leechers":0,"uploader":"TvTeam","files":4,"time":1440117036,"description":"------------------------------------------------------------------------\n\n &lt;a href=&quot; https://www.torrenting.com&quot; rel=&quot;nofollow&quot; target=&quot;_NEW&quot;&gt; https://www.torrenting.com&lt;/a&gt;\n\nSign up is OPEN - for time being. Come and have fun\n\n.......................................................................................................................Avengers Age of Ultron (2015) HDRip XviD-MAXSPEED\nFormat                                   : AVI\nFormat/Info                              : Audio Video Interleave\nFormat profile                           : OpenDML\nFile size                                : 2.05 GiB\nDuration                                 : 2h 21mn\nOverall bit rate                         : 2 070 Kbps\nWriting application                      : VirtualDubMod 1.5.10.2 (build 2542/release)\nWriting library                          : VirtualDubMod build 2542/release\nOriginal source form                     : MAX TORRENTZ\nCopyright                                : SIGISMUNT\n\nVideo\nID                                       : 0\nFormat                                   : MPEG-4 Visual\nFormat profile                           : Advanced Simple@L5\nFormat settings, BVOP                    : 2\nFormat settings, QPel                    : No\nFormat settings, GMC                     : No warppoints\nFormat settings, Matrix                  : Default (MPEG)\nCodec ID                                 : XVID\nCodec ID/Hint                            : XviD\nDuration                                 : 2h 21mn\nBit rate                                 : 1 675 Kbps\nWidth                                    : 720 pixels\nHeight                                   : 304 pixels\nDisplay aspect ratio                     : 2.35:1\nFrame rate                               : 23.976 fps\nColor space                              : YUV\nChroma subsampling                       : 4:2:0\nBit depth                                : 8 bits\nScan type                                : Progressive\nCompression mode                         : Lossy\nBits/(Pixel*Frame)                       : 0.319\nStream size                              : 1.66 GiB (81%)\nWriting library                          : XviD 1.2.1 (UTC 2008-12-04)\n\nAudio\nID                                       : 1\nFormat                                   : AC-3\nFormat/Info                              : Audio Coding 3\nMode extension                           : CM (complete main)\nFormat settings, Endianness              : Big\nCodec ID                                 : 2000\nDuration                                 : 2h 21mn\nBit rate mode                            : Constant\nBit rate                                 : 384 Kbps\nChannel(s)                               : 6 channels\nChannel positions                        : Front: L C R, Side: L R, LFE\nSampling rate                            : 48.0 KHz\nBit depth                                : 16 bits\nCompression mode                         : Lossy\nStream size                              : 388 MiB (19%)\nAlignment                                : Split accross interleaves\nInterleave, duration                     : 42 ms (1.00 video frame)\nInterleave, preload duration             : 500 ms\n\nSource: WEBDL HD (clean encode/source, perfect a/v/sync quality,sample included)\nThis torrent is not seedbox supported,please seed it to the MAX\n\nUploader Note: If you think image it's a little dark on your device then\nVLC-&gt;Ctrl+E-&gt;Video Effects-&gt;Image adjust-&gt;Brightness-&gt;Close, simple as 1,2,3\nso no more complaints about this please,thank you\n\n\n\nRecommended player for all our movies &lt;a href=&quot;\nhttp://www.videolan.org/vlc/&quot; rel=&quot;nofollow&quot; target=&quot;_NEW&quot;&gt;\nhttp://www.videolan.org/vlc/&lt;/a&gt;\n\nREMEMBER: GOD DEMANDS LOVE,SEEDS,PEERS AND A FAIR TORRENT RATIO","torrent":{"xt":"urn:btih:2e9d1a04c4e36c344ec4ad840a0774e1164c0a57","amp;dn":"Avengers+Age+of+Ultron+%282015%29+HDRip+XviD-MAXSPEED","amp;tr":["udp%3A%2F%2Ftracker.openbittorrent.com%3A80","udp%3A%2F%2Fopen.demonii.com%3A1337","udp%3A%2F%2Ftracker.coppersurfer.tk%3A6969","udp%3A%2F%2Fexodus.desync.com%3A6969"],"infoHash":"2e9d1a04c4e36c344ec4ad840a0774e1164c0a57","infoHashBuffer":{"type":"Buffer","data":[46,157,26,4,196,227,108,52,78,196,173,132,10,7,116,225,22,76,10,87]},"announce":[],"urlList":[]}}